<mxfile><diagram id="5Az0_xbxQpVVaKRNq6m5" name="ReducerNgRx_Entendimento"><mxGraphModel dx="1407" dy="680" grid="1" gridSize="10" guides="1" tooltips="1" connect="1" arrows="1" fold="1" page="1" pageScale="1" pageWidth="850" pageHeight="1100" math="0" shadow="0"><root><mxCell id="0"/><mxCell id="1" parent="0"/><mxCell id="49" value="NgRx Reducer" style="swimlane;sketch=1;hachureGap=4;jiggle=2;curveFitting=1;fontFamily=Architects Daughter;fontSource=https%3A%2F%2Ffonts.googleapis.com%2Fcss%3Ffamily%3DArchitects%2BDaughter;fontSize=20;fillColor=#008a00;fontColor=#ffffff;strokeColor=#005700;fillStyle=solid;startSize=23;" vertex="1" parent="1"><mxGeometry width="850" height="800" as="geometry"/></mxCell><mxCell id="39" value="&lt;font color=&quot;#ffffff&quot; face=&quot;Verdana&quot;&gt;Store&lt;/font&gt;" style="rounded=0;whiteSpace=wrap;html=1;sketch=1;hachureGap=4;jiggle=2;curveFitting=1;fontFamily=Architects Daughter;fontSource=https%3A%2F%2Ffonts.googleapis.com%2Fcss%3Ffamily%3DArchitects%2BDaughter;fontSize=20;fillColor=#d80073;shadow=1;fillStyle=solid;fontColor=#ffffff;strokeColor=#A50040;" vertex="1" parent="49"><mxGeometry x="290" y="150" width="120" height="40" as="geometry"/></mxCell><mxCell id="17" value="&lt;font face=&quot;Verdana&quot;&gt;Selector&lt;/font&gt;" style="rounded=0;whiteSpace=wrap;html=1;sketch=1;hachureGap=4;jiggle=2;curveFitting=1;fontFamily=Architects Daughter;fontSource=https%3A%2F%2Ffonts.googleapis.com%2Fcss%3Ffamily%3DArchitects%2BDaughter;fontSize=20;fillColor=#d80073;fontColor=#ffffff;strokeColor=#A50040;fillStyle=solid;" vertex="1" parent="49"><mxGeometry x="110" y="150" width="120" height="40" as="geometry"/></mxCell><mxCell id="41" style="edgeStyle=none;sketch=1;hachureGap=4;jiggle=2;curveFitting=1;html=1;strokeColor=#F029DC;fontFamily=Architects Daughter;fontSource=https%3A%2F%2Ffonts.googleapis.com%2Fcss%3Ffamily%3DArchitects%2BDaughter;fontSize=16;strokeWidth=3;" edge="1" parent="49" source="39"><mxGeometry relative="1" as="geometry"><mxPoint x="230" y="170" as="targetPoint"/></mxGeometry></mxCell><mxCell id="55" style="edgeStyle=none;sketch=1;hachureGap=4;jiggle=2;curveFitting=1;html=1;entryX=0.25;entryY=1;entryDx=0;entryDy=0;strokeColor=#005700;fontFamily=Architects Daughter;fontSource=https%3A%2F%2Ffonts.googleapis.com%2Fcss%3Ffamily%3DArchitects%2BDaughter;fontSize=16;fillColor=#008a00;strokeWidth=3;" edge="1" parent="49" source="42" target="35"><mxGeometry relative="1" as="geometry"><Array as="points"><mxPoint x="320" y="515"/></Array></mxGeometry></mxCell><mxCell id="42" value="componente" style="swimlane;startSize=20;horizontal=1;containerType=tree;sketch=1;hachureGap=4;jiggle=2;curveFitting=1;fontFamily=Verdana;fontSize=20;strokeColor=#2D7600;fillStyle=solid;fillColor=#60a917;fontColor=#ffffff;" vertex="1" parent="49"><mxGeometry x="35" y="380" width="170" height="270" as="geometry"/></mxCell><mxCell id="46" style="edgeStyle=none;sketch=1;hachureGap=4;jiggle=2;curveFitting=1;html=1;entryX=0.5;entryY=0;entryDx=0;entryDy=0;strokeColor=#F029DC;fontFamily=Architects Daughter;fontSource=https%3A%2F%2Ffonts.googleapis.com%2Fcss%3Ffamily%3DArchitects%2BDaughter;fontSize=16;exitX=0.5;exitY=1;exitDx=0;exitDy=0;strokeWidth=3;" edge="1" parent="49" source="17" target="42"><mxGeometry relative="1" as="geometry"><Array as="points"><mxPoint x="170" y="290"/><mxPoint x="120" y="290"/></Array></mxGeometry></mxCell><mxCell id="2" value="cadastro de usuarios" style="rounded=0;whiteSpace=wrap;html=1;sketch=1;hachureGap=4;jiggle=2;curveFitting=1;fontFamily=Architects Daughter;fontSource=https%3A%2F%2Ffonts.googleapis.com%2Fcss%3Ffamily%3DArchitects%2BDaughter;fontSize=20;fillStyle=solid;fillColor=#008a00;fontColor=#ffffff;strokeColor=#005700;" vertex="1" parent="49"><mxGeometry x="60" y="435" width="120" height="60" as="geometry"/></mxCell><mxCell id="3" value="listagem de usuarios" style="rounded=0;whiteSpace=wrap;html=1;sketch=1;hachureGap=4;jiggle=2;curveFitting=1;fontFamily=Architects Daughter;fontSource=https%3A%2F%2Ffonts.googleapis.com%2Fcss%3Ffamily%3DArchitects%2BDaughter;fontSize=20;fillColor=#008a00;fontColor=#ffffff;strokeColor=#005700;fillStyle=solid;" vertex="1" parent="49"><mxGeometry x="60" y="535" width="120" height="60" as="geometry"/></mxCell><mxCell id="16" value="&lt;font face=&quot;Verdana&quot;&gt;Reducer&lt;/font&gt;" style="rounded=0;whiteSpace=wrap;html=1;sketch=1;hachureGap=4;jiggle=2;curveFitting=1;fontFamily=Architects Daughter;fontSource=https%3A%2F%2Ffonts.googleapis.com%2Fcss%3Ffamily%3DArchitects%2BDaughter;fontSize=20;fillStyle=solid;fillColor=#d80073;fontColor=#ffffff;strokeColor=#A50040;" vertex="1" parent="49"><mxGeometry x="290" y="260" width="120" height="40" as="geometry"/></mxCell><mxCell id="38" style="edgeStyle=none;sketch=1;hachureGap=4;jiggle=2;curveFitting=1;html=1;entryX=0.5;entryY=1;entryDx=0;entryDy=0;strokeColor=#F029DC;fontFamily=Architects Daughter;fontSource=https%3A%2F%2Ffonts.googleapis.com%2Fcss%3Ffamily%3DArchitects%2BDaughter;fontSize=16;strokeWidth=3;" edge="1" parent="49" source="35" target="16"><mxGeometry relative="1" as="geometry"/></mxCell><mxCell id="35" value="&lt;font face=&quot;Verdana&quot;&gt;Action&lt;/font&gt;" style="rounded=0;whiteSpace=wrap;html=1;sketch=1;hachureGap=4;jiggle=2;curveFitting=1;fontFamily=Architects Daughter;fontSource=https%3A%2F%2Ffonts.googleapis.com%2Fcss%3Ffamily%3DArchitects%2BDaughter;fontSize=20;fillColor=#d80073;fontColor=#ffffff;strokeColor=#A50040;fillStyle=solid;" vertex="1" parent="49"><mxGeometry x="290" y="370" width="120" height="40" as="geometry"/></mxCell><mxCell id="40" style="edgeStyle=none;sketch=1;hachureGap=4;jiggle=2;curveFitting=1;html=1;entryX=0.5;entryY=1;entryDx=0;entryDy=0;strokeColor=#F029DC;fontFamily=Architects Daughter;fontSource=https%3A%2F%2Ffonts.googleapis.com%2Fcss%3Ffamily%3DArchitects%2BDaughter;fontSize=16;strokeWidth=3;" edge="1" parent="49" source="16" target="39"><mxGeometry relative="1" as="geometry"/></mxCell><mxCell id="11" style="edgeStyle=none;sketch=1;hachureGap=4;jiggle=2;curveFitting=1;html=1;exitX=0;exitY=0.5;exitDx=0;exitDy=0;fontFamily=Architects Daughter;fontSource=https%3A%2F%2Ffonts.googleapis.com%2Fcss%3Ffamily%3DArchitects%2BDaughter;fontSize=16;entryX=1;entryY=0.5;entryDx=0;entryDy=0;entryPerimeter=0;strokeColor=#001DBC;strokeWidth=2;fillColor=#0050ef;" edge="1" parent="49" source="10" target="25"><mxGeometry relative="1" as="geometry"><mxPoint x="-245.28571428571422" y="110" as="targetPoint"/><Array as="points"><mxPoint x="625" y="130"/><mxPoint x="615" y="160"/></Array></mxGeometry></mxCell><mxCell id="25" value="&lt;font face=&quot;Verdana&quot;&gt;banco&lt;/font&gt;" style="shape=cylinder3;whiteSpace=wrap;html=1;boundedLbl=1;backgroundOutline=1;size=15;sketch=1;hachureGap=4;jiggle=2;curveFitting=1;fontFamily=Architects Daughter;fontSource=https%3A%2F%2Ffonts.googleapis.com%2Fcss%3Ffamily%3DArchitects%2BDaughter;fontSize=20;" vertex="1" parent="49"><mxGeometry x="510" y="110" width="90" height="90" as="geometry"/></mxCell><mxCell id="32" style="edgeStyle=none;sketch=1;hachureGap=4;jiggle=2;curveFitting=1;html=1;fontFamily=Architects Daughter;fontSource=https%3A%2F%2Ffonts.googleapis.com%2Fcss%3Ffamily%3DArchitects%2BDaughter;fontSize=16;exitX=0.655;exitY=-0.068;exitDx=0;exitDy=0;exitPerimeter=0;strokeColor=#005700;strokeWidth=3;fillColor=#008a00;" edge="1" parent="49" source="26"><mxGeometry relative="1" as="geometry"><mxPoint x="575" y="240" as="sourcePoint"/><mxPoint x="574" y="200" as="targetPoint"/></mxGeometry></mxCell><mxCell id="26" value="&lt;font face=&quot;Verdana&quot;&gt;service&lt;/font&gt;" style="rounded=1;whiteSpace=wrap;html=1;sketch=1;hachureGap=4;jiggle=2;curveFitting=1;fontFamily=Architects Daughter;fontSource=https%3A%2F%2Ffonts.googleapis.com%2Fcss%3Ffamily%3DArchitects%2BDaughter;fontSize=20;fillColor=#60a917;fontColor=#ffffff;strokeColor=#2D7600;fillStyle=solid;" vertex="1" parent="49"><mxGeometry x="495" y="250" width="120" height="50" as="geometry"/></mxCell><mxCell id="31" style="edgeStyle=none;sketch=1;hachureGap=4;jiggle=2;curveFitting=1;html=1;entryX=0.322;entryY=0;entryDx=0;entryDy=0;entryPerimeter=0;fontFamily=Architects Daughter;fontSource=https%3A%2F%2Ffonts.googleapis.com%2Fcss%3Ffamily%3DArchitects%2BDaughter;fontSize=16;strokeColor=#F029DC;exitX=0.279;exitY=1.013;exitDx=0;exitDy=0;exitPerimeter=0;strokeWidth=3;" edge="1" parent="49" source="25" target="26"><mxGeometry relative="1" as="geometry"><mxPoint x="530" y="190" as="sourcePoint"/></mxGeometry></mxCell><mxCell id="34" style="edgeStyle=none;sketch=1;hachureGap=4;jiggle=2;curveFitting=1;html=1;entryX=0.75;entryY=1;entryDx=0;entryDy=0;strokeColor=#005700;fontFamily=Architects Daughter;fontSource=https%3A%2F%2Ffonts.googleapis.com%2Fcss%3Ffamily%3DArchitects%2BDaughter;fontSize=16;exitX=0.75;exitY=0;exitDx=0;exitDy=0;strokeWidth=3;fillColor=#008a00;" edge="1" parent="49" source="18" target="26"><mxGeometry relative="1" as="geometry"/></mxCell><mxCell id="18" value="&lt;font face=&quot;Verdana&quot;&gt;Effects&lt;/font&gt;" style="rounded=0;whiteSpace=wrap;html=1;sketch=1;hachureGap=4;jiggle=2;curveFitting=1;fontFamily=Architects Daughter;fontSource=https%3A%2F%2Ffonts.googleapis.com%2Fcss%3Ffamily%3DArchitects%2BDaughter;fontSize=20;fillColor=#d80073;fontColor=#ffffff;strokeColor=#A50040;fillStyle=solid;" vertex="1" parent="49"><mxGeometry x="495" y="370" width="120" height="40" as="geometry"/></mxCell><mxCell id="36" style="edgeStyle=none;sketch=1;hachureGap=4;jiggle=2;curveFitting=1;html=1;entryX=1;entryY=0.25;entryDx=0;entryDy=0;strokeColor=#F029DC;fontFamily=Architects Daughter;fontSource=https%3A%2F%2Ffonts.googleapis.com%2Fcss%3Ffamily%3DArchitects%2BDaughter;fontSize=16;exitX=0;exitY=0.25;exitDx=0;exitDy=0;strokeWidth=3;" edge="1" parent="49" source="18" target="35"><mxGeometry relative="1" as="geometry"/></mxCell><mxCell id="10" value="Arquivo Json / SQL / Elasticsearch" style="rounded=0;whiteSpace=wrap;html=1;sketch=1;hachureGap=4;jiggle=2;curveFitting=1;fontFamily=Architects Daughter;fontSource=https%3A%2F%2Ffonts.googleapis.com%2Fcss%3Ffamily%3DArchitects%2BDaughter;fontSize=20;fillColor=#6a00ff;fontColor=#ffffff;strokeColor=#3700CC;fillStyle=solid;" vertex="1" parent="49"><mxGeometry x="655" y="70" width="160" height="100" as="geometry"/></mxCell><mxCell id="37" style="edgeStyle=none;sketch=1;hachureGap=4;jiggle=2;curveFitting=1;html=1;entryX=0;entryY=0.75;entryDx=0;entryDy=0;strokeColor=#005700;fontFamily=Architects Daughter;fontSource=https%3A%2F%2Ffonts.googleapis.com%2Fcss%3Ffamily%3DArchitects%2BDaughter;fontSize=16;exitX=1;exitY=0.75;exitDx=0;exitDy=0;fillColor=#008a00;strokeWidth=3;" edge="1" parent="49" source="35" target="18"><mxGeometry relative="1" as="geometry"><mxPoint x="645" y="110" as="sourcePoint"/></mxGeometry></mxCell><mxCell id="4" value="service de usuarios" style="rounded=0;whiteSpace=wrap;html=1;sketch=1;hachureGap=4;jiggle=2;curveFitting=1;fontFamily=Architects Daughter;fontSource=https%3A%2F%2Ffonts.googleapis.com%2Fcss%3Ffamily%3DArchitects%2BDaughter;fontSize=20;fillColor=#6a00ff;fontColor=#ffffff;strokeColor=#3700CC;fillStyle=solid;" vertex="1" parent="49"><mxGeometry x="655" y="240" width="120" height="60" as="geometry"/></mxCell><mxCell id="21" value="efeito de sucesso / erro" style="rounded=0;whiteSpace=wrap;html=1;sketch=1;hachureGap=4;jiggle=2;curveFitting=1;fontFamily=Architects Daughter;fontSource=https%3A%2F%2Ffonts.googleapis.com%2Fcss%3Ffamily%3DArchitects%2BDaughter;fontSize=20;fillColor=#6a00ff;strokeColor=#3700CC;fillStyle=solid;fontColor=#ffffff;" vertex="1" parent="49"><mxGeometry x="485" y="490" width="140" height="80" as="geometry"/></mxCell><mxCell id="33" style="edgeStyle=none;sketch=1;hachureGap=4;jiggle=2;curveFitting=1;html=1;entryX=0.25;entryY=0;entryDx=0;entryDy=0;strokeColor=#F029DC;fontFamily=Architects Daughter;fontSource=https%3A%2F%2Ffonts.googleapis.com%2Fcss%3Ffamily%3DArchitects%2BDaughter;fontSize=16;exitX=0.25;exitY=1;exitDx=0;exitDy=0;strokeWidth=3;" edge="1" parent="49" source="26" target="18"><mxGeometry relative="1" as="geometry"/></mxCell><mxCell id="52" style="edgeStyle=none;sketch=1;hachureGap=4;jiggle=2;curveFitting=1;html=1;entryX=1;entryY=0.5;entryDx=0;entryDy=0;strokeColor=#3700CC;fontFamily=Architects Daughter;fontSource=https%3A%2F%2Ffonts.googleapis.com%2Fcss%3Ffamily%3DArchitects%2BDaughter;fontSize=16;fillColor=#6a00ff;strokeWidth=2;" edge="1" parent="49" source="4" target="26"><mxGeometry relative="1" as="geometry"/></mxCell><mxCell id="53" style="edgeStyle=none;sketch=1;hachureGap=4;jiggle=2;curveFitting=1;html=1;entryX=0.5;entryY=1;entryDx=0;entryDy=0;strokeColor=#3700CC;fontFamily=Architects Daughter;fontSource=https%3A%2F%2Ffonts.googleapis.com%2Fcss%3Ffamily%3DArchitects%2BDaughter;fontSize=16;fillColor=#6a00ff;strokeWidth=2;" edge="1" parent="49" source="21" target="18"><mxGeometry relative="1" as="geometry"/></mxCell><mxCell id="58" style="edgeStyle=none;sketch=1;hachureGap=4;jiggle=2;curveFitting=1;html=1;entryX=1;entryY=0.5;entryDx=0;entryDy=0;strokeColor=#001DBC;strokeWidth=2;fontFamily=Verdana;fontSize=17;fontColor=#F0F0F0;fillColor=#0050ef;" edge="1" parent="49" source="57" target="16"><mxGeometry relative="1" as="geometry"><Array as="points"><mxPoint x="735" y="340"/><mxPoint x="460" y="340"/><mxPoint x="460" y="280"/></Array></mxGeometry></mxCell><mxCell id="57" value="&lt;font style=&quot;font-size: 17px;&quot;&gt;o reducer pega atualização do Action e joga no Store&lt;/font&gt;" style="rounded=0;whiteSpace=wrap;html=1;sketch=1;hachureGap=4;jiggle=2;curveFitting=1;fontFamily=Architects Daughter;fontSource=https%3A%2F%2Ffonts.googleapis.com%2Fcss%3Ffamily%3DArchitects%2BDaughter;fontSize=20;fillColor=#6a00ff;strokeColor=#3700CC;fillStyle=solid;fontColor=#ffffff;" vertex="1" parent="49"><mxGeometry x="665" y="410" width="140" height="100" as="geometry"/></mxCell><mxCell id="60" style="edgeStyle=none;sketch=1;hachureGap=4;jiggle=2;curveFitting=1;html=1;exitX=0;exitY=1;exitDx=0;exitDy=0;entryX=0;entryY=0.75;entryDx=0;entryDy=0;strokeColor=#001DBC;strokeWidth=2;fontFamily=Verdana;fontSize=15;fontColor=#F0F0F0;fillColor=#0050ef;" edge="1" parent="49" source="59" target="17"><mxGeometry relative="1" as="geometry"><Array as="points"><mxPoint x="20" y="180"/></Array></mxGeometry></mxCell><mxCell id="59" value="&lt;font style=&quot;font-size: 15px;&quot;&gt;selector escuta as alteraçoes do store e joga no componente&lt;/font&gt;" style="rounded=0;whiteSpace=wrap;html=1;sketch=1;hachureGap=4;jiggle=2;curveFitting=1;fontFamily=Architects Daughter;fontSource=https%3A%2F%2Ffonts.googleapis.com%2Fcss%3Ffamily%3DArchitects%2BDaughter;fontSize=20;fillColor=#6a00ff;strokeColor=#3700CC;fillStyle=solid;fontColor=#ffffff;" vertex="1" parent="49"><mxGeometry x="20" y="40" width="220" height="80" as="geometry"/></mxCell></root></mxGraphModel></diagram><diagram id="hqP5hvNS6dOW2UqZ634l" name="MinhaHierarquiaDePastas"><mxGraphModel dx="4846" dy="3004" grid="1" gridSize="10" guides="1" tooltips="1" connect="1" arrows="1" fold="1" page="1" pageScale="1" pageWidth="850" pageHeight="1100" math="0" shadow="0"><root><mxCell id="0"/><mxCell id="1" parent="0"/><mxCell id="eKRpRsb9NTrojZ0TdREg-10" style="edgeStyle=none;sketch=1;hachureGap=4;jiggle=2;curveFitting=1;html=1;entryX=0;entryY=0.5;entryDx=0;entryDy=0;strokeColor=#7F00FF;strokeWidth=2;fontFamily=Verdana;fontSize=15;fontColor=#F0F0F0;exitX=0.75;exitY=1;exitDx=0;exitDy=0;" edge="1" parent="1" source="eKRpRsb9NTrojZ0TdREg-1" target="eKRpRsb9NTrojZ0TdREg-2"><mxGeometry relative="1" as="geometry"><Array as="points"><mxPoint x="-210" y="-55"/></Array></mxGeometry></mxCell><mxCell id="eKRpRsb9NTrojZ0TdREg-1" value="ReducerNgRx" style="rounded=1;whiteSpace=wrap;html=1;shadow=1;sketch=1;hachureGap=4;jiggle=2;fillStyle=solid;curveFitting=1;strokeColor=default;strokeWidth=2;fontFamily=Verdana;fontSize=15;fontColor=#F0F0F0;fillColor=#6600CC;gradientColor=none;" vertex="1" parent="1"><mxGeometry x="-300" y="-195" width="120" height="60" as="geometry"/></mxCell><mxCell id="eKRpRsb9NTrojZ0TdREg-2" value="Store" style="rounded=1;whiteSpace=wrap;html=1;shadow=1;sketch=1;hachureGap=4;jiggle=2;fillStyle=solid;curveFitting=1;strokeColor=default;strokeWidth=2;fontFamily=Verdana;fontSize=15;fontColor=#F0F0F0;fillColor=#6600CC;gradientColor=none;" vertex="1" parent="1"><mxGeometry x="-160" y="-85" width="120" height="60" as="geometry"/></mxCell><mxCell id="eKRpRsb9NTrojZ0TdREg-9" style="edgeStyle=none;sketch=1;hachureGap=4;jiggle=2;curveFitting=1;html=1;entryX=1;entryY=0.5;entryDx=0;entryDy=0;strokeColor=#001DBC;strokeWidth=2;fontFamily=Verdana;fontSize=15;fontColor=#F0F0F0;fillColor=#0050ef;" edge="1" parent="1" source="eKRpRsb9NTrojZ0TdREg-4" target="eKRpRsb9NTrojZ0TdREg-2"><mxGeometry relative="1" as="geometry"/></mxCell><mxCell id="eKRpRsb9NTrojZ0TdREg-4" value="Usuarios" style="rounded=1;whiteSpace=wrap;html=1;shadow=1;sketch=1;hachureGap=4;jiggle=2;fillStyle=solid;curveFitting=1;strokeColor=default;strokeWidth=2;fontFamily=Verdana;fontSize=15;fontColor=#F0F0F0;fillColor=#6600CC;gradientColor=none;" vertex="1" parent="1"><mxGeometry x="10" y="-85" width="140" height="60" as="geometry"/></mxCell><mxCell id="eKRpRsb9NTrojZ0TdREg-8" style="edgeStyle=none;sketch=1;hachureGap=4;jiggle=2;curveFitting=1;html=1;entryX=0.5;entryY=0;entryDx=0;entryDy=0;strokeColor=#7F00FF;strokeWidth=2;fontFamily=Verdana;fontSize=15;fontColor=#F0F0F0;fillColor=#6a00ff;exitX=0;exitY=0.5;exitDx=0;exitDy=0;" edge="1" parent="1" source="eKRpRsb9NTrojZ0TdREg-5" target="eKRpRsb9NTrojZ0TdREg-49"><mxGeometry relative="1" as="geometry"><Array as="points"><mxPoint x="540" y="-650"/><mxPoint x="330" y="-650"/></Array></mxGeometry></mxCell><mxCell id="eKRpRsb9NTrojZ0TdREg-5" value="Usuarios.actions.ts" style="rhombus;whiteSpace=wrap;html=1;shadow=1;sketch=1;hachureGap=4;jiggle=2;fillStyle=solid;curveFitting=1;strokeColor=default;strokeWidth=2;fontFamily=Verdana;fontSize=15;fontColor=#F0F0F0;fillColor=#6600CC;gradientColor=none;" vertex="1" parent="1"><mxGeometry x="570" y="-690" width="200" height="80" as="geometry"/></mxCell><mxCell id="eKRpRsb9NTrojZ0TdREg-7" style="edgeStyle=none;sketch=1;hachureGap=4;jiggle=2;curveFitting=1;html=1;entryX=0.5;entryY=0;entryDx=0;entryDy=0;strokeColor=#F029DC;strokeWidth=2;fontFamily=Verdana;fontSize=15;fontColor=#F0F0F0;" edge="1" parent="1" source="eKRpRsb9NTrojZ0TdREg-6" target="eKRpRsb9NTrojZ0TdREg-2"><mxGeometry relative="1" as="geometry"><Array as="points"><mxPoint x="-60" y="-115"/><mxPoint x="-100" y="-115"/></Array></mxGeometry></mxCell><mxCell id="eKRpRsb9NTrojZ0TdREg-6" value="actions" style="shape=parallelogram;perimeter=parallelogramPerimeter;whiteSpace=wrap;html=1;fixedSize=1;shadow=1;sketch=1;hachureGap=4;jiggle=2;fillStyle=solid;curveFitting=1;strokeColor=default;strokeWidth=2;fontFamily=Verdana;fontSize=15;fontColor=#F0F0F0;fillColor=#6600CC;gradientColor=none;" vertex="1" parent="1"><mxGeometry x="-120" y="-185" width="120" height="30" as="geometry"/></mxCell><mxCell id="eKRpRsb9NTrojZ0TdREg-18" style="edgeStyle=none;sketch=1;hachureGap=4;jiggle=2;curveFitting=1;html=1;entryX=0.5;entryY=0;entryDx=0;entryDy=0;strokeColor=#7F00FF;strokeWidth=2;fontFamily=Verdana;fontSize=15;fontColor=#F0F0F0;" edge="1" parent="1" source="eKRpRsb9NTrojZ0TdREg-11" target="eKRpRsb9NTrojZ0TdREg-5"><mxGeometry relative="1" as="geometry"><Array as="points"><mxPoint x="770" y="-840"/></Array></mxGeometry></mxCell><mxCell id="eKRpRsb9NTrojZ0TdREg-44" style="edgeStyle=none;sketch=1;hachureGap=4;jiggle=2;curveFitting=1;html=1;exitX=1;exitY=0.5;exitDx=0;exitDy=0;entryX=0;entryY=0.5;entryDx=0;entryDy=0;strokeColor=#7F00FF;strokeWidth=2;fontFamily=Verdana;fontSize=15;fontColor=#F0F0F0;" edge="1" parent="1" source="eKRpRsb9NTrojZ0TdREg-11" target="eKRpRsb9NTrojZ0TdREg-27"><mxGeometry relative="1" as="geometry"/></mxCell><mxCell id="eKRpRsb9NTrojZ0TdREg-11" value="LOAD_USUARIOS&lt;br&gt;LOAD_USUARIOS_SUCESSO&lt;br&gt;LOAD_USUARIOS_FAIL" style="rounded=1;whiteSpace=wrap;html=1;shadow=1;sketch=1;hachureGap=4;jiggle=2;fillStyle=solid;curveFitting=1;strokeColor=default;strokeWidth=2;fontFamily=Verdana;fontSize=15;fontColor=#F0F0F0;fillColor=#6600CC;gradientColor=none;align=center;" vertex="1" parent="1"><mxGeometry x="870" y="-870" width="250" height="60" as="geometry"/></mxCell><mxCell id="eKRpRsb9NTrojZ0TdREg-19" style="edgeStyle=none;sketch=1;hachureGap=4;jiggle=2;curveFitting=1;html=1;entryX=1;entryY=0.5;entryDx=0;entryDy=0;strokeColor=#7F00FF;strokeWidth=2;fontFamily=Verdana;fontSize=15;fontColor=#F0F0F0;" edge="1" parent="1" source="eKRpRsb9NTrojZ0TdREg-12" target="eKRpRsb9NTrojZ0TdREg-5"><mxGeometry relative="1" as="geometry"/></mxCell><mxCell id="eKRpRsb9NTrojZ0TdREg-43" style="edgeStyle=none;sketch=1;hachureGap=4;jiggle=2;curveFitting=1;html=1;exitX=1;exitY=0.5;exitDx=0;exitDy=0;entryX=0;entryY=0.5;entryDx=0;entryDy=0;strokeColor=#7F00FF;strokeWidth=2;fontFamily=Verdana;fontSize=15;fontColor=#F0F0F0;" edge="1" parent="1" source="eKRpRsb9NTrojZ0TdREg-12" target="eKRpRsb9NTrojZ0TdREg-28"><mxGeometry relative="1" as="geometry"/></mxCell><mxCell id="eKRpRsb9NTrojZ0TdREg-12" value="LOAD_USUARIO&lt;br&gt;LOAD_USUARIO_SUCESSO&lt;br&gt;LOAD_USUARIO_FAIL" style="rounded=1;whiteSpace=wrap;html=1;shadow=1;sketch=1;hachureGap=4;jiggle=2;fillStyle=solid;curveFitting=1;strokeColor=default;strokeWidth=2;fontFamily=Verdana;fontSize=15;fontColor=#F0F0F0;fillColor=#6600CC;gradientColor=none;align=center;" vertex="1" parent="1"><mxGeometry x="870" y="-695" width="250" height="60" as="geometry"/></mxCell><mxCell id="eKRpRsb9NTrojZ0TdREg-13" value="BuscaTodos" style="shape=parallelogram;perimeter=parallelogramPerimeter;whiteSpace=wrap;html=1;fixedSize=1;shadow=1;sketch=1;hachureGap=4;jiggle=2;fillStyle=solid;curveFitting=1;strokeColor=default;strokeWidth=2;fontFamily=Verdana;fontSize=15;fontColor=#F0F0F0;fillColor=#CC3571;gradientColor=none;" vertex="1" parent="1"><mxGeometry x="1000" y="-910" width="120" height="30" as="geometry"/></mxCell><mxCell id="eKRpRsb9NTrojZ0TdREg-14" value="BuscaUmUsuer" style="shape=parallelogram;perimeter=parallelogramPerimeter;whiteSpace=wrap;html=1;fixedSize=1;shadow=1;sketch=1;hachureGap=4;jiggle=2;fillStyle=solid;curveFitting=1;strokeColor=default;strokeWidth=2;fontFamily=Verdana;fontSize=15;fontColor=#F0F0F0;fillColor=#CC3571;gradientColor=none;" vertex="1" parent="1"><mxGeometry x="975" y="-730" width="145" height="30" as="geometry"/></mxCell><mxCell id="eKRpRsb9NTrojZ0TdREg-20" style="edgeStyle=none;sketch=1;hachureGap=4;jiggle=2;curveFitting=1;html=1;strokeColor=#7F00FF;strokeWidth=2;fontFamily=Verdana;fontSize=15;fontColor=#F0F0F0;entryX=0.5;entryY=1;entryDx=0;entryDy=0;" edge="1" parent="1" source="eKRpRsb9NTrojZ0TdREg-16" target="eKRpRsb9NTrojZ0TdREg-5"><mxGeometry relative="1" as="geometry"><Array as="points"><mxPoint x="780" y="-500"/></Array></mxGeometry></mxCell><mxCell id="eKRpRsb9NTrojZ0TdREg-42" style="edgeStyle=none;sketch=1;hachureGap=4;jiggle=2;curveFitting=1;html=1;exitX=1;exitY=0.5;exitDx=0;exitDy=0;entryX=0;entryY=0.5;entryDx=0;entryDy=0;strokeColor=#7F00FF;strokeWidth=2;fontFamily=Verdana;fontSize=15;fontColor=#F0F0F0;" edge="1" parent="1" source="eKRpRsb9NTrojZ0TdREg-16" target="eKRpRsb9NTrojZ0TdREg-29"><mxGeometry relative="1" as="geometry"/></mxCell><mxCell id="eKRpRsb9NTrojZ0TdREg-16" value="CREATE_USUARIO&lt;br&gt;CREATE_USUARIO_SUCESSO&lt;br&gt;CREATE_USUARIO_FAIL" style="rounded=1;whiteSpace=wrap;html=1;shadow=1;sketch=1;hachureGap=4;jiggle=2;fillStyle=solid;curveFitting=1;strokeColor=default;strokeWidth=2;fontFamily=Verdana;fontSize=15;fontColor=#F0F0F0;fillColor=#6600CC;gradientColor=none;align=center;" vertex="1" parent="1"><mxGeometry x="870" y="-525" width="250" height="60" as="geometry"/></mxCell><mxCell id="eKRpRsb9NTrojZ0TdREg-17" value="CriaUmUsuer" style="shape=parallelogram;perimeter=parallelogramPerimeter;whiteSpace=wrap;html=1;fixedSize=1;shadow=1;sketch=1;hachureGap=4;jiggle=2;fillStyle=solid;curveFitting=1;strokeColor=default;strokeWidth=2;fontFamily=Verdana;fontSize=15;fontColor=#F0F0F0;fillColor=#CC3571;gradientColor=none;" vertex="1" parent="1"><mxGeometry x="975" y="-560" width="145" height="30" as="geometry"/></mxCell><mxCell id="eKRpRsb9NTrojZ0TdREg-25" style="edgeStyle=none;sketch=1;hachureGap=4;jiggle=2;curveFitting=1;html=1;entryX=0.5;entryY=1;entryDx=0;entryDy=0;strokeColor=#7F00FF;strokeWidth=2;fontFamily=Verdana;fontSize=15;fontColor=#F0F0F0;" edge="1" parent="1" source="eKRpRsb9NTrojZ0TdREg-21" target="eKRpRsb9NTrojZ0TdREg-5"><mxGeometry relative="1" as="geometry"><Array as="points"><mxPoint x="770" y="-320"/></Array></mxGeometry></mxCell><mxCell id="eKRpRsb9NTrojZ0TdREg-41" style="edgeStyle=none;sketch=1;hachureGap=4;jiggle=2;curveFitting=1;html=1;entryX=0;entryY=0.5;entryDx=0;entryDy=0;strokeColor=#7F00FF;strokeWidth=2;fontFamily=Verdana;fontSize=15;fontColor=#F0F0F0;" edge="1" parent="1" source="eKRpRsb9NTrojZ0TdREg-21" target="eKRpRsb9NTrojZ0TdREg-30"><mxGeometry relative="1" as="geometry"/></mxCell><mxCell id="eKRpRsb9NTrojZ0TdREg-21" value="UPDATE_USUARIO&lt;br&gt;UPDATE_USUARIO_SUCESSO&lt;br&gt;UPDATE_USUARIO_FAIL" style="rounded=1;whiteSpace=wrap;html=1;shadow=1;sketch=1;hachureGap=4;jiggle=2;fillStyle=solid;curveFitting=1;strokeColor=default;strokeWidth=2;fontFamily=Verdana;fontSize=15;fontColor=#F0F0F0;fillColor=#6600CC;gradientColor=none;align=center;" vertex="1" parent="1"><mxGeometry x="870" y="-345" width="250" height="60" as="geometry"/></mxCell><mxCell id="eKRpRsb9NTrojZ0TdREg-22" value="AtualizaUmUsuer" style="shape=parallelogram;perimeter=parallelogramPerimeter;whiteSpace=wrap;html=1;fixedSize=1;shadow=1;sketch=1;hachureGap=4;jiggle=2;fillStyle=solid;curveFitting=1;strokeColor=default;strokeWidth=2;fontFamily=Verdana;fontSize=15;fontColor=#F0F0F0;fillColor=#CC3571;gradientColor=none;" vertex="1" parent="1"><mxGeometry x="960" y="-380" width="160" height="30" as="geometry"/></mxCell><mxCell id="eKRpRsb9NTrojZ0TdREg-26" style="edgeStyle=none;sketch=1;hachureGap=4;jiggle=2;curveFitting=1;html=1;strokeColor=#7F00FF;strokeWidth=2;fontFamily=Verdana;fontSize=15;fontColor=#F0F0F0;exitX=0;exitY=0.5;exitDx=0;exitDy=0;" edge="1" parent="1" source="eKRpRsb9NTrojZ0TdREg-23"><mxGeometry relative="1" as="geometry"><mxPoint x="670" y="-610" as="targetPoint"/><Array as="points"><mxPoint x="770" y="-130"/></Array></mxGeometry></mxCell><mxCell id="eKRpRsb9NTrojZ0TdREg-40" style="edgeStyle=none;sketch=1;hachureGap=4;jiggle=2;curveFitting=1;html=1;entryX=0;entryY=0.5;entryDx=0;entryDy=0;strokeColor=#7F00FF;strokeWidth=2;fontFamily=Verdana;fontSize=15;fontColor=#F0F0F0;" edge="1" parent="1" source="eKRpRsb9NTrojZ0TdREg-23" target="eKRpRsb9NTrojZ0TdREg-31"><mxGeometry relative="1" as="geometry"/></mxCell><mxCell id="eKRpRsb9NTrojZ0TdREg-23" value="DELETE_USUARIO&lt;br&gt;DELETE_USUARIO_SUCESSO&lt;br&gt;DELETE_USUARIO_FAIL" style="rounded=1;whiteSpace=wrap;html=1;shadow=1;sketch=1;hachureGap=4;jiggle=2;fillStyle=solid;curveFitting=1;strokeColor=default;strokeWidth=2;fontFamily=Verdana;fontSize=15;fontColor=#F0F0F0;fillColor=#6600CC;gradientColor=none;align=center;" vertex="1" parent="1"><mxGeometry x="870" y="-160" width="250" height="60" as="geometry"/></mxCell><mxCell id="eKRpRsb9NTrojZ0TdREg-24" value="DeletaUmUsuer" style="shape=parallelogram;perimeter=parallelogramPerimeter;whiteSpace=wrap;html=1;fixedSize=1;shadow=1;sketch=1;hachureGap=4;jiggle=2;fillStyle=solid;curveFitting=1;strokeColor=default;strokeWidth=2;fontFamily=Verdana;fontSize=15;fontColor=#F0F0F0;fillColor=#CC3571;gradientColor=none;" vertex="1" parent="1"><mxGeometry x="960" y="-190" width="160" height="30" as="geometry"/></mxCell><mxCell id="eKRpRsb9NTrojZ0TdREg-27" value="LoadUsuarios&lt;br&gt;LoadusUariosSuccess&lt;br&gt;LoadUsuariosFail" style="rhombus;whiteSpace=wrap;html=1;shadow=1;sketch=1;hachureGap=4;jiggle=2;fillStyle=solid;curveFitting=1;strokeColor=default;strokeWidth=2;fontFamily=Verdana;fontSize=15;fontColor=#F0F0F0;fillColor=#9660CC;gradientColor=none;" vertex="1" parent="1"><mxGeometry x="1230" y="-895" width="250" height="110" as="geometry"/></mxCell><mxCell id="eKRpRsb9NTrojZ0TdREg-28" value="LoadUsuario&lt;br&gt;LoadusUarioSuccess&lt;br&gt;LoadUsuarioFail" style="rhombus;whiteSpace=wrap;html=1;shadow=1;sketch=1;hachureGap=4;jiggle=2;fillStyle=solid;curveFitting=1;strokeColor=default;strokeWidth=2;fontFamily=Verdana;fontSize=15;fontColor=#F0F0F0;fillColor=#9660CC;gradientColor=none;" vertex="1" parent="1"><mxGeometry x="1230" y="-720" width="250" height="110" as="geometry"/></mxCell><mxCell id="eKRpRsb9NTrojZ0TdREg-29" value="CreateUsuario&lt;br&gt;CreateUsuarioSuccess&lt;br&gt;CreateUsuarioFail" style="rhombus;whiteSpace=wrap;html=1;shadow=1;sketch=1;hachureGap=4;jiggle=2;fillStyle=solid;curveFitting=1;strokeColor=default;strokeWidth=2;fontFamily=Verdana;fontSize=15;fontColor=#F0F0F0;fillColor=#9660CC;gradientColor=none;" vertex="1" parent="1"><mxGeometry x="1230" y="-550" width="250" height="110" as="geometry"/></mxCell><mxCell id="eKRpRsb9NTrojZ0TdREg-30" value="UPdateUsuario&lt;br&gt;UPdateUsuarioSuccess&lt;br&gt;UPdateUsuarioFail" style="rhombus;whiteSpace=wrap;html=1;shadow=1;sketch=1;hachureGap=4;jiggle=2;fillStyle=solid;curveFitting=1;strokeColor=default;strokeWidth=2;fontFamily=Verdana;fontSize=15;fontColor=#F0F0F0;fillColor=#9660CC;gradientColor=none;" vertex="1" parent="1"><mxGeometry x="1230" y="-370" width="250" height="110" as="geometry"/></mxCell><mxCell id="eKRpRsb9NTrojZ0TdREg-31" value="DeleteUsuario&lt;br&gt;DeleteUsuarioSuccess&lt;br&gt;DeleteUsuariosFail" style="rhombus;whiteSpace=wrap;html=1;shadow=1;sketch=1;hachureGap=4;jiggle=2;fillStyle=solid;curveFitting=1;strokeColor=default;strokeWidth=2;fontFamily=Verdana;fontSize=15;fontColor=#F0F0F0;fillColor=#9660CC;gradientColor=none;" vertex="1" parent="1"><mxGeometry x="1230" y="-185" width="250" height="110" as="geometry"/></mxCell><mxCell id="eKRpRsb9NTrojZ0TdREg-35" value="CreateAction_3_function" style="shape=parallelogram;perimeter=parallelogramPerimeter;whiteSpace=wrap;html=1;fixedSize=1;shadow=1;sketch=1;hachureGap=4;jiggle=2;fillStyle=solid;curveFitting=1;strokeColor=default;strokeWidth=2;fontFamily=Verdana;fontSize=15;fontColor=#F0F0F0;fillColor=#C49933;gradientColor=none;" vertex="1" parent="1"><mxGeometry x="1255" y="-930" width="225" height="30" as="geometry"/></mxCell><mxCell id="eKRpRsb9NTrojZ0TdREg-45" value="CreateAction_3_function" style="shape=parallelogram;perimeter=parallelogramPerimeter;whiteSpace=wrap;html=1;fixedSize=1;shadow=1;sketch=1;hachureGap=4;jiggle=2;fillStyle=solid;curveFitting=1;strokeColor=default;strokeWidth=2;fontFamily=Verdana;fontSize=15;fontColor=#F0F0F0;fillColor=#C49933;gradientColor=none;" vertex="1" parent="1"><mxGeometry x="1255" y="-750" width="225" height="30" as="geometry"/></mxCell><mxCell id="eKRpRsb9NTrojZ0TdREg-46" value="CreateAction_3_function" style="shape=parallelogram;perimeter=parallelogramPerimeter;whiteSpace=wrap;html=1;fixedSize=1;shadow=1;sketch=1;hachureGap=4;jiggle=2;fillStyle=solid;curveFitting=1;strokeColor=default;strokeWidth=2;fontFamily=Verdana;fontSize=15;fontColor=#F0F0F0;fillColor=#C49933;gradientColor=none;" vertex="1" parent="1"><mxGeometry x="1255" y="-580" width="225" height="30" as="geometry"/></mxCell><mxCell id="eKRpRsb9NTrojZ0TdREg-47" value="CreateAction_3_function" style="shape=parallelogram;perimeter=parallelogramPerimeter;whiteSpace=wrap;html=1;fixedSize=1;shadow=1;sketch=1;hachureGap=4;jiggle=2;fillStyle=solid;curveFitting=1;strokeColor=default;strokeWidth=2;fontFamily=Verdana;fontSize=15;fontColor=#F0F0F0;fillColor=#C49933;gradientColor=none;" vertex="1" parent="1"><mxGeometry x="1255" y="-400" width="225" height="30" as="geometry"/></mxCell><mxCell id="eKRpRsb9NTrojZ0TdREg-48" value="CreateAction_3_function" style="shape=parallelogram;perimeter=parallelogramPerimeter;whiteSpace=wrap;html=1;fixedSize=1;shadow=1;sketch=1;hachureGap=4;jiggle=2;fillStyle=solid;curveFitting=1;strokeColor=default;strokeWidth=2;fontFamily=Verdana;fontSize=15;fontColor=#F0F0F0;fillColor=#C49933;gradientColor=none;" vertex="1" parent="1"><mxGeometry x="1255" y="-220" width="225" height="30" as="geometry"/></mxCell><mxCell id="eKRpRsb9NTrojZ0TdREg-51" style="edgeStyle=none;sketch=1;hachureGap=4;jiggle=2;curveFitting=1;html=1;entryX=0.5;entryY=0;entryDx=0;entryDy=0;strokeColor=#7F00FF;strokeWidth=2;fontFamily=Verdana;fontSize=15;fontColor=#F0F0F0;" edge="1" parent="1" source="eKRpRsb9NTrojZ0TdREg-49" target="eKRpRsb9NTrojZ0TdREg-4"><mxGeometry relative="1" as="geometry"><Array as="points"><mxPoint x="80" y="-270"/></Array></mxGeometry></mxCell><mxCell id="eKRpRsb9NTrojZ0TdREg-49" value="Action" style="rounded=1;whiteSpace=wrap;html=1;shadow=1;sketch=1;hachureGap=4;jiggle=2;fillStyle=solid;curveFitting=1;strokeColor=default;strokeWidth=2;fontFamily=Verdana;fontSize=15;fontColor=#F0F0F0;fillColor=#6600CC;gradientColor=none;" vertex="1" parent="1"><mxGeometry x="260" y="-300" width="140" height="60" as="geometry"/></mxCell><mxCell id="eKRpRsb9NTrojZ0TdREg-57" style="edgeStyle=none;sketch=1;hachureGap=4;jiggle=2;curveFitting=1;html=1;entryX=1;entryY=0.5;entryDx=0;entryDy=0;strokeColor=#7F00FF;strokeWidth=2;fontFamily=Verdana;fontSize=15;fontColor=#F0F0F0;" edge="1" parent="1" source="eKRpRsb9NTrojZ0TdREg-52" target="eKRpRsb9NTrojZ0TdREg-4"><mxGeometry relative="1" as="geometry"/></mxCell><mxCell id="eKRpRsb9NTrojZ0TdREg-52" value="Reducer" style="rounded=1;whiteSpace=wrap;html=1;shadow=1;sketch=1;hachureGap=4;jiggle=2;fillStyle=solid;curveFitting=1;strokeColor=default;strokeWidth=2;fontFamily=Verdana;fontSize=15;fontColor=#F0F0F0;fillColor=#6600CC;gradientColor=none;" vertex="1" parent="1"><mxGeometry x="270" y="-85" width="190" height="60" as="geometry"/></mxCell><mxCell id="eKRpRsb9NTrojZ0TdREg-55" style="edgeStyle=none;sketch=1;hachureGap=4;jiggle=2;curveFitting=1;html=1;entryX=1;entryY=0.5;entryDx=0;entryDy=0;strokeColor=#7F00FF;strokeWidth=2;fontFamily=Verdana;fontSize=15;fontColor=#F0F0F0;" edge="1" parent="1" source="eKRpRsb9NTrojZ0TdREg-54" target="eKRpRsb9NTrojZ0TdREg-52"><mxGeometry relative="1" as="geometry"><Array as="points"><mxPoint x="530" y="20"/><mxPoint x="530" y="-55"/></Array></mxGeometry></mxCell><mxCell id="eKRpRsb9NTrojZ0TdREg-54" value="Usuarios.reducer.ts" style="rhombus;whiteSpace=wrap;html=1;shadow=1;sketch=1;hachureGap=4;jiggle=2;fillStyle=solid;curveFitting=1;strokeColor=default;strokeWidth=2;fontFamily=Verdana;fontSize=15;fontColor=#F0F0F0;fillColor=#6600CC;gradientColor=none;" vertex="1" parent="1"><mxGeometry x="570" y="-20" width="200" height="80" as="geometry"/></mxCell><mxCell id="eKRpRsb9NTrojZ0TdREg-58" value="Controla o estado" style="shape=parallelogram;perimeter=parallelogramPerimeter;whiteSpace=wrap;html=1;fixedSize=1;shadow=1;sketch=1;hachureGap=4;jiggle=2;fillStyle=solid;curveFitting=1;strokeColor=default;strokeWidth=2;fontFamily=Verdana;fontSize=15;fontColor=#F0F0F0;fillColor=#CC3571;gradientColor=none;" vertex="1" parent="1"><mxGeometry x="290" y="-120" width="160" height="30" as="geometry"/></mxCell><mxCell id="eKRpRsb9NTrojZ0TdREg-60" style="edgeStyle=none;sketch=1;hachureGap=4;jiggle=2;curveFitting=1;html=1;entryX=1;entryY=0.5;entryDx=0;entryDy=0;strokeColor=#7F00FF;strokeWidth=2;fontFamily=Verdana;fontSize=15;fontColor=#F0F0F0;" edge="1" parent="1" source="eKRpRsb9NTrojZ0TdREg-59" target="eKRpRsb9NTrojZ0TdREg-54"><mxGeometry relative="1" as="geometry"/></mxCell><mxCell id="eKRpRsb9NTrojZ0TdREg-59" value="Inicializa as variáveis para guardar o estado do usuario" style="rounded=1;whiteSpace=wrap;html=1;shadow=1;sketch=1;hachureGap=4;jiggle=2;fillStyle=solid;curveFitting=1;strokeColor=default;strokeWidth=2;fontFamily=Verdana;fontSize=15;fontColor=#F0F0F0;fillColor=#6600CC;gradientColor=none;align=center;" vertex="1" parent="1"><mxGeometry x="850" y="-10" width="250" height="60" as="geometry"/></mxCell><mxCell id="eKRpRsb9NTrojZ0TdREg-63" style="edgeStyle=none;sketch=1;hachureGap=4;jiggle=2;curveFitting=1;html=1;entryX=0.5;entryY=1;entryDx=0;entryDy=0;strokeColor=#7F00FF;strokeWidth=2;fontFamily=Verdana;fontSize=15;fontColor=#F0F0F0;" edge="1" parent="1" source="eKRpRsb9NTrojZ0TdREg-61" target="eKRpRsb9NTrojZ0TdREg-59"><mxGeometry relative="1" as="geometry"/></mxCell><mxCell id="eKRpRsb9NTrojZ0TdREg-61" value="Iniciando o State" style="rounded=1;whiteSpace=wrap;html=1;shadow=1;sketch=1;hachureGap=4;jiggle=2;fillStyle=solid;curveFitting=1;strokeColor=default;strokeWidth=2;fontFamily=Verdana;fontSize=15;fontColor=#F0F0F0;fillColor=#6600CC;gradientColor=none;align=center;" vertex="1" parent="1"><mxGeometry x="850" y="160" width="250" height="60" as="geometry"/></mxCell><mxCell id="eKRpRsb9NTrojZ0TdREg-64" style="edgeStyle=none;sketch=1;hachureGap=4;jiggle=2;curveFitting=1;html=1;entryX=0.5;entryY=1;entryDx=0;entryDy=0;strokeColor=#7F00FF;strokeWidth=2;fontFamily=Verdana;fontSize=15;fontColor=#F0F0F0;" edge="1" parent="1" source="eKRpRsb9NTrojZ0TdREg-62" target="eKRpRsb9NTrojZ0TdREg-61"><mxGeometry relative="1" as="geometry"/></mxCell><mxCell id="eKRpRsb9NTrojZ0TdREg-62" value="CriandoFuncaoReducer" style="rounded=1;whiteSpace=wrap;html=1;shadow=1;sketch=1;hachureGap=4;jiggle=2;fillStyle=solid;curveFitting=1;strokeColor=default;strokeWidth=2;fontFamily=Verdana;fontSize=15;fontColor=#F0F0F0;fillColor=#6600CC;gradientColor=none;align=center;" vertex="1" parent="1"><mxGeometry x="850" y="350" width="250" height="60" as="geometry"/></mxCell><mxCell id="eKRpRsb9NTrojZ0TdREg-67" style="edgeStyle=none;sketch=1;hachureGap=4;jiggle=2;curveFitting=1;html=1;entryX=1;entryY=0.5;entryDx=0;entryDy=0;strokeColor=#7F00FF;strokeWidth=2;fontFamily=Verdana;fontSize=15;fontColor=#F0F0F0;" edge="1" parent="1" source="eKRpRsb9NTrojZ0TdREg-66" target="eKRpRsb9NTrojZ0TdREg-59"><mxGeometry relative="1" as="geometry"/></mxCell><mxCell id="eKRpRsb9NTrojZ0TdREg-66" value="export interface UsuariosState{&lt;br&gt;&lt;span style=&quot;&quot;&gt;&#9;&lt;/span&gt;&lt;span style=&quot;background-color: rgb(30, 35, 54); font-family: &amp;quot;Lucida Sans&amp;quot;, &amp;quot;Lucida Sans&amp;quot;, &amp;quot;Lucida Sans&amp;quot;, Consolas, &amp;quot;Courier New&amp;quot;, monospace; font-size: 12px; color: rgb(217, 128, 250);&quot;&gt;&lt;span style=&quot;white-space: pre;&quot;&gt;&#9;&lt;/span&gt;usuarios&lt;/span&gt;&lt;span style=&quot;background-color: rgb(30, 35, 54); color: rgb(171, 178, 191); font-family: &amp;quot;Lucida Sans&amp;quot;, &amp;quot;Lucida Sans&amp;quot;, &amp;quot;Lucida Sans&amp;quot;, Consolas, &amp;quot;Courier New&amp;quot;, monospace; font-size: 12px;&quot;&gt;: &lt;/span&gt;&lt;span style=&quot;background-color: rgb(30, 35, 54); font-family: &amp;quot;Lucida Sans&amp;quot;, &amp;quot;Lucida Sans&amp;quot;, &amp;quot;Lucida Sans&amp;quot;, Consolas, &amp;quot;Courier New&amp;quot;, monospace; font-size: 12px; color: rgb(229, 192, 123);&quot;&gt;UsuarioModel&lt;/span&gt;&lt;span style=&quot;background-color: rgb(30, 35, 54); color: rgb(171, 178, 191); font-family: &amp;quot;Lucida Sans&amp;quot;, &amp;quot;Lucida Sans&amp;quot;, &amp;quot;Lucida Sans&amp;quot;, Consolas, &amp;quot;Courier New&amp;quot;, monospace; font-size: 12px;&quot;&gt;[];&lt;/span&gt;&lt;div style=&quot;color: rgb(171, 178, 191); background-color: rgb(30, 35, 54); font-family: &amp;quot;Lucida Sans&amp;quot;, &amp;quot;Lucida Sans&amp;quot;, &amp;quot;Lucida Sans&amp;quot;, Consolas, &amp;quot;Courier New&amp;quot;, monospace; font-size: 12px; line-height: 16px;&quot;&gt;&lt;div&gt;&amp;nbsp; &lt;span style=&quot;white-space: pre;&quot;&gt;&#9;&lt;/span&gt;&lt;span style=&quot;color: #d980fa;&quot;&gt;usuario&lt;/span&gt;: &lt;span style=&quot;color: #e5c07b;&quot;&gt;any&lt;/span&gt; | &lt;span style=&quot;color: #e5c07b;&quot;&gt;null&lt;/span&gt;;&lt;/div&gt;&lt;div&gt;&amp;nbsp; &lt;span style=&quot;white-space: pre;&quot;&gt;&#9;&lt;/span&gt;&lt;span style=&quot;color: #d980fa;&quot;&gt;error&lt;/span&gt;: &lt;span style=&quot;color: #e5c07b;&quot;&gt;string&lt;/span&gt; | &lt;span style=&quot;color: #e5c07b;&quot;&gt;null&lt;/span&gt;;&lt;/div&gt;&lt;/div&gt;}" style="rounded=1;whiteSpace=wrap;html=1;shadow=1;sketch=1;hachureGap=4;jiggle=2;fillStyle=solid;curveFitting=1;strokeColor=default;strokeWidth=2;fontFamily=Verdana;fontSize=15;fontColor=#F0F0F0;fillColor=#6600CC;gradientColor=none;align=left;" vertex="1" parent="1"><mxGeometry x="1220" y="-35" width="250" height="110" as="geometry"/></mxCell><mxCell id="eKRpRsb9NTrojZ0TdREg-71" style="edgeStyle=none;sketch=1;hachureGap=4;jiggle=2;curveFitting=1;html=1;entryX=1;entryY=0.5;entryDx=0;entryDy=0;strokeColor=#7F00FF;strokeWidth=2;fontFamily=Verdana;fontSize=15;fontColor=#F0F0F0;" edge="1" parent="1" source="eKRpRsb9NTrojZ0TdREg-68" target="eKRpRsb9NTrojZ0TdREg-61"><mxGeometry relative="1" as="geometry"/></mxCell><mxCell id="eKRpRsb9NTrojZ0TdREg-68" value="&lt;div style=&quot;color: rgb(171, 178, 191); background-color: rgb(30, 35, 54); font-family: &amp;quot;Lucida Sans&amp;quot;, &amp;quot;Lucida Sans&amp;quot;, &amp;quot;Lucida Sans&amp;quot;, Consolas, &amp;quot;Courier New&amp;quot;, monospace; font-size: 12px; line-height: 16px;&quot;&gt;&lt;div style=&quot;line-height: 16px;&quot;&gt;&lt;div&gt;&lt;span style=&quot;color: #f3a862;&quot;&gt;export&lt;/span&gt; &lt;span style=&quot;color: #f3a862;&quot;&gt;const&lt;/span&gt; &lt;span style=&quot;color: #e5c07b;&quot;&gt;initialState&lt;/span&gt;: &lt;span style=&quot;color: #e5c07b;&quot;&gt;UsuariosState&lt;/span&gt; &lt;span style=&quot;color: #56b6c2;&quot;&gt;=&lt;/span&gt; {&lt;/div&gt;&lt;div&gt;&amp;nbsp; &lt;span style=&quot;color: #e06c75;&quot;&gt;usuarios&lt;/span&gt;: [],&lt;/div&gt;&lt;div&gt;&amp;nbsp; &lt;span style=&quot;color: #e06c75;&quot;&gt;usuario&lt;/span&gt;: &lt;span style=&quot;color: #f3a862;&quot;&gt;null&lt;/span&gt;,&lt;/div&gt;&lt;div&gt;&amp;nbsp; &lt;span style=&quot;color: #e06c75;&quot;&gt;error&lt;/span&gt;: &lt;span style=&quot;color: #98c379;&quot;&gt;''&lt;/span&gt;,&lt;/div&gt;&lt;div&gt;};&lt;/div&gt;&lt;/div&gt;&lt;/div&gt;" style="rounded=1;whiteSpace=wrap;html=1;shadow=1;sketch=1;hachureGap=4;jiggle=2;fillStyle=solid;curveFitting=1;strokeColor=default;strokeWidth=2;fontFamily=Verdana;fontSize=15;fontColor=#F0F0F0;fillColor=#6600CC;gradientColor=none;align=left;" vertex="1" parent="1"><mxGeometry x="1220" y="130" width="310" height="110" as="geometry"/></mxCell><mxCell id="eKRpRsb9NTrojZ0TdREg-69" value="&lt;div style=&quot;color: rgb(171, 178, 191); background-color: rgb(30, 35, 54); font-family: &amp;quot;Lucida Sans&amp;quot;, &amp;quot;Lucida Sans&amp;quot;, &amp;quot;Lucida Sans&amp;quot;, Consolas, &amp;quot;Courier New&amp;quot;, monospace; font-size: 12px; line-height: 16px;&quot;&gt;&lt;span style=&quot;color: #69888f;font-style: italic;&quot;&gt;Para guardar o estado dos usuarios&lt;/span&gt;&lt;/div&gt;" style="shape=parallelogram;perimeter=parallelogramPerimeter;whiteSpace=wrap;html=1;fixedSize=1;shadow=1;sketch=1;hachureGap=4;jiggle=2;fillStyle=solid;curveFitting=1;strokeColor=default;strokeWidth=2;fontFamily=Verdana;fontSize=15;fontColor=#F0F0F0;fillColor=#C49933;gradientColor=none;" vertex="1" parent="1"><mxGeometry x="1470" y="-35" width="270" height="30" as="geometry"/></mxCell><mxCell id="eKRpRsb9NTrojZ0TdREg-70" value="&lt;div style=&quot;color: rgb(171, 178, 191); background-color: rgb(30, 35, 54); font-family: &amp;quot;Lucida Sans&amp;quot;, &amp;quot;Lucida Sans&amp;quot;, &amp;quot;Lucida Sans&amp;quot;, Consolas, &amp;quot;Courier New&amp;quot;, monospace; font-size: 12px; line-height: 16px;&quot;&gt;&lt;span style=&quot;color: #69888f;font-style: italic;&quot;&gt;initialState&lt;/span&gt;&lt;/div&gt;" style="shape=parallelogram;perimeter=parallelogramPerimeter;whiteSpace=wrap;html=1;fixedSize=1;shadow=1;sketch=1;hachureGap=4;jiggle=2;fillStyle=solid;curveFitting=1;strokeColor=default;strokeWidth=2;fontFamily=Verdana;fontSize=15;fontColor=#F0F0F0;fillColor=#C49933;gradientColor=none;" vertex="1" parent="1"><mxGeometry x="1535" y="130" width="140" height="30" as="geometry"/></mxCell><mxCell id="eKRpRsb9NTrojZ0TdREg-74" style="edgeStyle=none;sketch=1;hachureGap=4;jiggle=2;curveFitting=1;html=1;entryX=1;entryY=0.5;entryDx=0;entryDy=0;strokeColor=#7F00FF;strokeWidth=2;fontFamily=Verdana;fontSize=15;fontColor=#F0F0F0;" edge="1" parent="1" source="eKRpRsb9NTrojZ0TdREg-72" target="eKRpRsb9NTrojZ0TdREg-62"><mxGeometry relative="1" as="geometry"/></mxCell><mxCell id="eKRpRsb9NTrojZ0TdREg-72" value="&lt;div style=&quot;color: rgb(171, 178, 191); background-color: rgb(30, 35, 54); font-family: &amp;quot;Lucida Sans&amp;quot;, &amp;quot;Lucida Sans&amp;quot;, &amp;quot;Lucida Sans&amp;quot;, Consolas, &amp;quot;Courier New&amp;quot;, monospace; font-size: 12px; line-height: 16px;&quot;&gt;&lt;div style=&quot;line-height: 16px;&quot;&gt;&lt;div&gt;&lt;span style=&quot;color: #f3a862;&quot;&gt;const&lt;/span&gt; &lt;span style=&quot;color: #e5c07b;&quot;&gt;_usuariosReducer&lt;/span&gt; &lt;span style=&quot;color: #56b6c2;&quot;&gt;=&lt;/span&gt; &lt;span style=&quot;color: #49a4ee;font-weight: bold;&quot;&gt;createReducer&lt;/span&gt;(&lt;/div&gt;&lt;div&gt;&amp;nbsp; &lt;span style=&quot;color: #e06c75;&quot;&gt;initialState&lt;/span&gt;,&lt;/div&gt;&lt;div&gt;&lt;div style=&quot;line-height: 16px;&quot;&gt;&lt;div&gt;&amp;nbsp; &lt;span style=&quot;color: #49a4ee;font-weight: bold;&quot;&gt;on&lt;/span&gt;(&lt;span style=&quot;color: #e5c07b;&quot;&gt;fromUsuariosAction&lt;/span&gt;.&lt;span style=&quot;color: #d980fa;&quot;&gt;LoadUsuariosSuccess&lt;/span&gt;, (&lt;span style=&quot;color: #d980fa;font-style: italic;&quot;&gt;state&lt;/span&gt;, { &lt;span style=&quot;color: #d980fa;font-style: italic;&quot;&gt;payload&lt;/span&gt; }) &lt;span style=&quot;color: #f3a862;&quot;&gt;=&amp;gt;&lt;/span&gt; ({&lt;/div&gt;&lt;div&gt;&amp;nbsp; &amp;nbsp; ...&lt;span style=&quot;color: #e06c75;&quot;&gt;state&lt;/span&gt;, &lt;span style=&quot;color: #e06c75;&quot;&gt;usuarios&lt;/span&gt;: &lt;span style=&quot;color: #e06c75;&quot;&gt;payload&lt;/span&gt;, &lt;span style=&quot;color: #e06c75;&quot;&gt;error&lt;/span&gt;: &lt;span style=&quot;color: #98c379;&quot;&gt;''&lt;/span&gt; })),&lt;/div&gt;&lt;div&gt;&amp;nbsp; &lt;span style=&quot;color: #49a4ee;font-weight: bold;&quot;&gt;on&lt;/span&gt;(&lt;span style=&quot;color: #e5c07b;&quot;&gt;fromUsuariosAction&lt;/span&gt;.&lt;span style=&quot;color: #d980fa;&quot;&gt;LoadUsuariosFail&lt;/span&gt;, (&lt;span style=&quot;color: #d980fa;font-style: italic;&quot;&gt;state&lt;/span&gt;, { &lt;span style=&quot;color: #d980fa;font-style: italic;&quot;&gt;error&lt;/span&gt; }) &lt;span style=&quot;color: #f3a862;&quot;&gt;=&amp;gt;&lt;/span&gt; ({&lt;/div&gt;&lt;div&gt;&amp;nbsp; &amp;nbsp; ...&lt;span style=&quot;color: #e06c75;&quot;&gt;state&lt;/span&gt;, &lt;span style=&quot;color: #e06c75;&quot;&gt;error&lt;/span&gt;: &lt;span style=&quot;color: #e06c75;&quot;&gt;error&lt;/span&gt; })),&lt;/div&gt;&lt;br&gt;&lt;div&gt;&amp;nbsp; &lt;span style=&quot;color: #49a4ee;font-weight: bold;&quot;&gt;on&lt;/span&gt;(&lt;span style=&quot;color: #e5c07b;&quot;&gt;fromUsuariosAction&lt;/span&gt;.&lt;span style=&quot;color: #d980fa;&quot;&gt;LoadUsuarioSuccess&lt;/span&gt;, (&lt;span style=&quot;color: #d980fa;font-style: italic;&quot;&gt;state&lt;/span&gt;, { &lt;span style=&quot;color: #d980fa;font-style: italic;&quot;&gt;payload&lt;/span&gt; }) &lt;span style=&quot;color: #f3a862;&quot;&gt;=&amp;gt;&lt;/span&gt; ({&lt;/div&gt;&lt;div&gt;&amp;nbsp; &amp;nbsp; ...&lt;span style=&quot;color: #e06c75;&quot;&gt;state&lt;/span&gt;, &lt;span style=&quot;color: #e06c75;&quot;&gt;usuario&lt;/span&gt;: &lt;span style=&quot;color: #e06c75;&quot;&gt;payload&lt;/span&gt;, &lt;span style=&quot;color: #e06c75;&quot;&gt;error&lt;/span&gt;: &lt;span style=&quot;color: #98c379;&quot;&gt;''&lt;/span&gt;})),&lt;/div&gt;&lt;div&gt;&amp;nbsp; &lt;span style=&quot;color: #49a4ee;font-weight: bold;&quot;&gt;on&lt;/span&gt;(&lt;span style=&quot;color: #e5c07b;&quot;&gt;fromUsuariosAction&lt;/span&gt;.&lt;span style=&quot;color: #d980fa;&quot;&gt;LoadUsuarioFail&lt;/span&gt;, (&lt;span style=&quot;color: #d980fa;font-style: italic;&quot;&gt;state&lt;/span&gt;, { &lt;span style=&quot;color: #d980fa;font-style: italic;&quot;&gt;error&lt;/span&gt; }) &lt;span style=&quot;color: #f3a862;&quot;&gt;=&amp;gt;&lt;/span&gt; ({&lt;/div&gt;&lt;div&gt;&amp;nbsp; &amp;nbsp; ...&lt;span style=&quot;color: #e06c75;&quot;&gt;state&lt;/span&gt;, &lt;span style=&quot;color: #e06c75;&quot;&gt;error&lt;/span&gt;: &lt;span style=&quot;color: #e06c75;&quot;&gt;error&lt;/span&gt; })),&lt;/div&gt;&lt;/div&gt;&lt;/div&gt;&lt;/div&gt;&lt;/div&gt;" style="rounded=1;whiteSpace=wrap;html=1;shadow=1;sketch=1;hachureGap=4;jiggle=2;fillStyle=solid;curveFitting=1;strokeColor=default;strokeWidth=2;fontFamily=Verdana;fontSize=15;fontColor=#F0F0F0;fillColor=#6600CC;gradientColor=none;align=center;" vertex="1" parent="1"><mxGeometry x="1220" y="280" width="510" height="220" as="geometry"/></mxCell><mxCell id="eKRpRsb9NTrojZ0TdREg-73" value="&lt;div style=&quot;color: rgb(171, 178, 191); background-color: rgb(30, 35, 54); font-family: &amp;quot;Lucida Sans&amp;quot;, &amp;quot;Lucida Sans&amp;quot;, &amp;quot;Lucida Sans&amp;quot;, Consolas, &amp;quot;Courier New&amp;quot;, monospace; font-size: 12px; line-height: 16px;&quot;&gt;&lt;div style=&quot;line-height: 16px;&quot;&gt;&lt;span style=&quot;color: #69888f;font-style: italic;&quot;&gt;criar uma função reducer&lt;/span&gt;&lt;/div&gt;&lt;/div&gt;" style="shape=parallelogram;perimeter=parallelogramPerimeter;whiteSpace=wrap;html=1;fixedSize=1;shadow=1;sketch=1;hachureGap=4;jiggle=2;fillStyle=solid;curveFitting=1;strokeColor=default;strokeWidth=2;fontFamily=Verdana;fontSize=15;fontColor=#F0F0F0;fillColor=#C49933;gradientColor=none;" vertex="1" parent="1"><mxGeometry x="1730" y="280" width="200" height="30" as="geometry"/></mxCell><mxCell id="eKRpRsb9NTrojZ0TdREg-79" style="edgeStyle=none;sketch=1;hachureGap=4;jiggle=2;curveFitting=1;html=1;strokeColor=#7F00FF;strokeWidth=2;fontFamily=Verdana;fontSize=15;fontColor=#F0F0F0;" edge="1" parent="1" source="eKRpRsb9NTrojZ0TdREg-78"><mxGeometry relative="1" as="geometry"><mxPoint x="975" y="410" as="targetPoint"/></mxGeometry></mxCell><mxCell id="eKRpRsb9NTrojZ0TdREg-78" value="&lt;div style=&quot;color: rgb(171, 178, 191); background-color: rgb(30, 35, 54); font-family: &amp;quot;Lucida Sans&amp;quot;, &amp;quot;Lucida Sans&amp;quot;, &amp;quot;Lucida Sans&amp;quot;, Consolas, &amp;quot;Courier New&amp;quot;, monospace; font-size: 12px; line-height: 16px;&quot;&gt;&lt;div&gt;&lt;span style=&quot;color: #f3a862;&quot;&gt;export&lt;/span&gt; &lt;span style=&quot;color: #f3a862;&quot;&gt;function&lt;/span&gt; &lt;span style=&quot;color: #49a4ee;font-weight: bold;&quot;&gt;usuariosReducer&lt;/span&gt;(&lt;span style=&quot;color: #d980fa;font-style: italic;&quot;&gt;state&lt;/span&gt; &lt;span style=&quot;color: #56b6c2;&quot;&gt;=&lt;/span&gt; &lt;span style=&quot;color: #e06c75;&quot;&gt;initialState&lt;/span&gt;, &lt;span style=&quot;color: #d980fa;font-style: italic;&quot;&gt;action&lt;/span&gt;: &lt;span style=&quot;color: #e5c07b;&quot;&gt;Action&lt;/span&gt;) {&lt;/div&gt;&lt;div&gt;&amp;nbsp; &lt;span style=&quot;color: #f3a862;&quot;&gt;return&lt;/span&gt; &lt;span style=&quot;color: #49a4ee;font-weight: bold;&quot;&gt;_usuariosReducer&lt;/span&gt;(&lt;span style=&quot;color: #e06c75;&quot;&gt;state&lt;/span&gt;, &lt;span style=&quot;color: #e06c75;&quot;&gt;action&lt;/span&gt;);&lt;/div&gt;&lt;div&gt;}&lt;/div&gt;&lt;/div&gt;" style="rounded=1;whiteSpace=wrap;html=1;shadow=1;sketch=1;hachureGap=4;jiggle=2;fillStyle=solid;curveFitting=1;strokeColor=default;strokeWidth=2;fontFamily=Verdana;fontSize=15;fontColor=#F0F0F0;fillColor=#6600CC;gradientColor=none;align=center;" vertex="1" parent="1"><mxGeometry x="835" y="500" width="280" height="100" as="geometry"/></mxCell><mxCell id="eKRpRsb9NTrojZ0TdREg-80" value="&lt;div style=&quot;color: rgb(171, 178, 191); background-color: rgb(30, 35, 54); font-family: &amp;quot;Lucida Sans&amp;quot;, &amp;quot;Lucida Sans&amp;quot;, &amp;quot;Lucida Sans&amp;quot;, Consolas, &amp;quot;Courier New&amp;quot;, monospace; font-size: 12px; line-height: 16px;&quot;&gt;&lt;div style=&quot;line-height: 16px;&quot;&gt;&lt;span style=&quot;color: #69888f;font-style: italic;&quot;&gt;xporta a função&lt;/span&gt;&lt;/div&gt;&lt;/div&gt;" style="shape=parallelogram;perimeter=parallelogramPerimeter;whiteSpace=wrap;html=1;fixedSize=1;shadow=1;sketch=1;hachureGap=4;jiggle=2;fillStyle=solid;curveFitting=1;strokeColor=default;strokeWidth=2;fontFamily=Verdana;fontSize=15;fontColor=#F0F0F0;fillColor=#C49933;gradientColor=none;" vertex="1" parent="1"><mxGeometry x="1130" y="535" width="200" height="30" as="geometry"/></mxCell><mxCell id="eKRpRsb9NTrojZ0TdREg-86" style="edgeStyle=none;sketch=1;hachureGap=4;jiggle=2;curveFitting=1;html=1;entryX=0.5;entryY=1;entryDx=0;entryDy=0;strokeColor=#7F00FF;strokeWidth=2;fontFamily=Verdana;fontSize=15;fontColor=#F0F0F0;" edge="1" parent="1" source="eKRpRsb9NTrojZ0TdREg-82" target="eKRpRsb9NTrojZ0TdREg-78"><mxGeometry relative="1" as="geometry"/></mxCell><mxCell id="eKRpRsb9NTrojZ0TdREg-82" value="Criando chaves para acessar o Estado" style="rounded=1;whiteSpace=wrap;html=1;shadow=1;sketch=1;hachureGap=4;jiggle=2;fillStyle=solid;curveFitting=1;strokeColor=default;strokeWidth=2;fontFamily=Verdana;fontSize=15;fontColor=#F0F0F0;fillColor=#6600CC;gradientColor=none;align=center;" vertex="1" parent="1"><mxGeometry x="850" y="670" width="250" height="60" as="geometry"/></mxCell><mxCell id="eKRpRsb9NTrojZ0TdREg-84" style="edgeStyle=none;sketch=1;hachureGap=4;jiggle=2;curveFitting=1;html=1;entryX=1;entryY=0.5;entryDx=0;entryDy=0;strokeColor=#7F00FF;strokeWidth=2;fontFamily=Verdana;fontSize=15;fontColor=#F0F0F0;" edge="1" parent="1" source="eKRpRsb9NTrojZ0TdREg-83" target="eKRpRsb9NTrojZ0TdREg-82"><mxGeometry relative="1" as="geometry"/></mxCell><mxCell id="eKRpRsb9NTrojZ0TdREg-83" value="getUsuarios = createSelector()&lt;br&gt;getUsuarioFeatureState = createFeatureSelector()&lt;br&gt;getUsuario = createSelector()&amp;nbsp;&lt;br&gt;getUsuarioErro = createSelector()&lt;br&gt;getUsuarioAdmin = createSelector()&lt;br&gt;getUsuarioAdministrador = createSelector()" style="rounded=1;whiteSpace=wrap;html=1;shadow=1;sketch=1;hachureGap=4;jiggle=2;fillStyle=solid;curveFitting=1;strokeColor=default;strokeWidth=2;fontFamily=Verdana;fontSize=15;fontColor=#F0F0F0;fillColor=#6600CC;gradientColor=none;align=center;" vertex="1" parent="1"><mxGeometry x="1200" y="635" width="450" height="130" as="geometry"/></mxCell><mxCell id="eKRpRsb9NTrojZ0TdREg-85" value="&lt;div style=&quot;color: rgb(171, 178, 191); background-color: rgb(30, 35, 54); font-family: &amp;quot;Lucida Sans&amp;quot;, &amp;quot;Lucida Sans&amp;quot;, &amp;quot;Lucida Sans&amp;quot;, Consolas, &amp;quot;Courier New&amp;quot;, monospace; font-size: 12px; line-height: 16px;&quot;&gt;&lt;div style=&quot;line-height: 16px;&quot;&gt;&lt;span style=&quot;color: #69888f;font-style: italic;&quot;&gt;xporta a função&lt;/span&gt;&lt;/div&gt;&lt;/div&gt;" style="shape=parallelogram;perimeter=parallelogramPerimeter;whiteSpace=wrap;html=1;fixedSize=1;shadow=1;sketch=1;hachureGap=4;jiggle=2;fillStyle=solid;curveFitting=1;strokeColor=default;strokeWidth=2;fontFamily=Verdana;fontSize=15;fontColor=#F0F0F0;fillColor=#C49933;gradientColor=none;" vertex="1" parent="1"><mxGeometry x="1650" y="640" width="200" height="30" as="geometry"/></mxCell><mxCell id="eKRpRsb9NTrojZ0TdREg-87" value="&lt;div style=&quot;background-color: rgb(30, 35, 54); font-family: &amp;quot;Lucida Sans&amp;quot;, &amp;quot;Lucida Sans&amp;quot;, &amp;quot;Lucida Sans&amp;quot;, Consolas, &amp;quot;Courier New&amp;quot;, monospace; font-size: 12px; line-height: 16px;&quot;&gt;&lt;div style=&quot;line-height: 16px;&quot;&gt;&lt;font color=&quot;#69888f&quot;&gt;&lt;i&gt;São filtros trazendo trechos do stado do objeto&lt;/i&gt;&lt;/font&gt;&lt;/div&gt;&lt;/div&gt;" style="shape=parallelogram;perimeter=parallelogramPerimeter;whiteSpace=wrap;html=1;fixedSize=1;shadow=1;sketch=1;hachureGap=4;jiggle=2;fillStyle=solid;curveFitting=1;strokeColor=default;strokeWidth=2;fontFamily=Verdana;fontSize=15;fontColor=#F0F0F0;fillColor=#C49933;gradientColor=none;" vertex="1" parent="1"><mxGeometry x="1650" y="700" width="360" height="40" as="geometry"/></mxCell></root></mxGraphModel></diagram></mxfile>